<svg xmlns="http://www.w3.org/2000/svg" viewBox="0 0 24 16" role="img" aria-label="United Kingdom flag">
  <rect width="24" height="16" fill="#012169"/>
  <polygon points="0,0 3,0 24,12 24,16 21,16 0,4" fill="#ffffff"/>
  <polygon points="24,0 21,0 0,12 0,16 3,16 24,4" fill="#ffffff"/>
  <polygon points="0,0 2,0 24,11 24,13 22,13 0,2" fill="#c8102e"/>
  <polygon points="24,0 22,0 0,11 0,13 2,13 24,2" fill="#c8102e"/>
  <rect x="9" width="6" height="16" fill="#ffffff"/>
  <rect y="5" width="24" height="6" fill="#ffffff"/>
  <rect x="10.5" width="3" height="16" fill="#c8102e"/>
  <rect y="6.5" width="24" height="3" fill="#c8102e"/>
  <rect x="0.5" y="0.5" width="23" height="15" rx="1" ry="1" fill="none" stroke="#000000" stroke-opacity="0.15"/>
</svg>
